<?xml version="1.0" encoding="UTF-8" standalone="no"?>
<!-- Created with Inkscape (http://www.inkscape.org/) -->

<svg
   xmlns:dc="http://purl.org/dc/elements/1.1/"
   xmlns:cc="http://creativecommons.org/ns#"
   xmlns:rdf="http://www.w3.org/1999/02/22-rdf-syntax-ns#"
   xmlns:svg="http://www.w3.org/2000/svg"
   xmlns="http://www.w3.org/2000/svg"
   xmlns:sodipodi="http://sodipodi.sourceforge.net/DTD/sodipodi-0.dtd"
   xmlns:inkscape="http://www.inkscape.org/namespaces/inkscape"
   width="127.99997"
   height="195.74413"
   id="svg2"
   version="1.1"
   inkscape:version="0.48.5 r10040"
   sodipodi:docname="logo.svg">
  <defs
     id="defs4" />
  <sodipodi:namedview
     id="base"
     pagecolor="#ffffff"
     bordercolor="#666666"
     borderopacity="1.0"
     inkscape:pageopacity="0.0"
     inkscape:pageshadow="2"
     inkscape:zoom="2"
     inkscape:cx="15.510706"
     inkscape:cy="59.244653"
     inkscape:document-units="px"
     inkscape:current-layer="g2992"
     showgrid="false"
     fit-margin-top="0"
     fit-margin-left="0"
     fit-margin-right="0"
     fit-margin-bottom="0"
     inkscape:window-width="958"
     inkscape:window-height="1008"
     inkscape:window-x="953"
     inkscape:window-y="0"
     inkscape:window-maximized="0" />
  <metadata
     id="metadata7">
    <rdf:RDF>
      <cc:Work
         rdf:about="">
        <dc:format>image/svg+xml</dc:format>
        <dc:type
           rdf:resource="http://purl.org/dc/dcmitype/StillImage" />
        <dc:title></dc:title>
      </cc:Work>
    </rdf:RDF>
  </metadata>
  <g
     inkscape:label="Layer 1"
     inkscape:groupmode="layer"
     id="layer1"
     transform="translate(-246.48571,-213.21136)">
    <g
       id="g2992"
       transform="matrix(0.97402597,0,0,0.97402597,-1459.9999,77.206088)">
      <text
         id="text2171"
         y="-946.41162"
         x="-471.24011"
         style="font-size:12px;font-style:normal;font-weight:normal;fill:#000000;fill-opacity:1;stroke:none;font-family:Lello"
         xml:space="preserve"><tspan
           y="-946.41162"
           x="-471.24011"
           id="tspan2173"
           sodipodi:role="line" /></text>
      <path
         style="fill:#6f275e;fill-opacity:0.94117647"
         d="m 1817.7057,139.63208 c -36.2911,0 -65.7138,29.40861 -65.7138,65.69959 0,36.291 29.4227,65.71372 65.7138,65.71372 36.2909,0 65.6995,-29.42272 65.6995,-65.71372 0,-36.29098 -29.4086,-65.69959 -65.6995,-65.69959 z m -14.5263,23.39154 c 2.1258,6e-5 4.1328,0.87403 6.042,2.62572 1.9093,1.75185 3.5716,4.74655 4.9691,8.97829 1.3975,4.23189 3.5695,13.00817 6.522,26.31372 l 4.1927,18.71888 c 1.6927,7.75507 3.4663,12.93891 5.3362,15.55672 1.8698,2.61783 4.1072,3.92448 6.7054,3.92447 4.4089,1e-5 6.9055,-3.11141 7.4961,-9.33121 l 2.1316,0 c 0,6.2198 -1.0078,10.74604 -3.0351,13.58036 -2.0274,2.83434 -4.5638,4.24916 -7.5949,4.24916 -2.4801,0 -4.8599,-0.92525 -7.143,-2.79512 -2.2833,-1.86987 -4.3301,-6.88569 -6.1409,-15.0344 l -5.082,-22.91157 -17.5895,39.92232 -11.1664,0 25.269,-54.44851 c -1.3384,-7.0464 -2.9525,-12.25589 -4.8421,-15.64141 -1.8895,-3.38539 -4.221,-5.08197 -7.016,-5.08205 -2.2438,6e-5 -4.2137,0.85692 -5.8867,2.56925 -1.673,1.71248 -2.5983,4.36555 -2.7951,7.94776 l -2.1316,0 c 0.118,-5.78668 1.2823,-10.43522 3.4868,-13.91917 2.2045,-3.48378 4.9657,-5.22312 8.2724,-5.22321 z"
         id="path2999"
         inkscape:connector-curvature="0"
         inkscape:export-filename="C:\Users\Saul\Documents\WebstormProjects\crisp\favicon.png"
         inkscape:export-xdpi="11.25"
         inkscape:export-ydpi="11.25" />
      <g
         transform="matrix(1.0266667,0,0,1.0266667,1673.57,104.21208)"
         style="font-size:40px;font-style:normal;font-weight:normal;line-height:125%;letter-spacing:0px;word-spacing:0px;fill:#a7699b;fill-opacity:1;stroke:none;font-family:Sans"
         id="text3011">
        <g
           id="g3041"
           style="fill:#a7699b;fill-opacity:1">
          <path
             id="path3030"
             style="font-size:64px;font-variant:normal;font-stretch:normal;fill:#a7699b;font-family:Nickainley;-inkscape-font-specification:Nickainley;fill-opacity:1"
             d="m 141.93164,181.20897 c -0.59767,3e-5 -1.12045,-0.21351 -1.56836,-0.64063 -0.44792,-0.42704 -0.67188,-0.93941 -0.67187,-1.53711 -1e-5,-0.59631 0.22395,-1.10803 0.67187,-1.53515 0.44791,-0.42705 0.97069,-0.64059 1.56836,-0.64063 0.59765,4e-5 1.10969,0.21358 1.53613,0.64063 0.42642,0.42712 0.63964,0.93884 0.63965,1.53515 -1e-5,0.5977 -0.21323,1.11007 -0.63965,1.53711 -0.42644,0.42712 -0.93848,0.64066 -1.53613,0.64063 z m 4.22461,18.30273 c 0.34113,0.12892 0.58625,0.37469 0.73535,0.73731 0.14907,0.36264 0.13833,0.71453 -0.0322,1.05566 -0.59636,1.27996 -1.24675,2.66668 -1.95117,4.16016 -0.70444,1.4935 -1.50457,2.90105 -2.40039,4.22265 -0.98178,1.45053 -2.09115,2.65593 -3.32812,3.61622 -1.23699,0.96028 -2.60222,1.44043 -4.09571,1.44043 l -0.0644,0 c -0.85287,0 -1.57813,-0.17058 -2.17578,-0.51172 -0.59766,-0.34115 -1.08854,-0.78906 -1.47266,-1.34375 -0.34114,-0.51172 -0.57552,-1.06641 -0.70312,-1.66407 -0.1276,-0.59765 -0.19141,-1.21679 -0.19141,-1.85742 l 0,-0.1914 c 0,-0.98047 0.23438,-2.30273 0.70313,-3.9668 0.21354,-0.76822 0.4375,-1.57909 0.67187,-2.43262 0.23438,-0.8535 0.52279,-1.72817 0.86524,-2.62402 0.0846,-0.34113 0.25488,-0.84243 0.51074,-1.50391 0.25586,-0.66144 0.55436,-1.48305 0.89551,-2.46484 0.34244,-0.98045 0.7054,-2.01495 1.08886,-3.10352 0.38346,-1.08852 0.78874,-2.16599 1.21582,-3.23242 0.043,-0.17055 0.1071,-0.38376 0.19239,-0.63965 0.0853,-0.25583 0.19172,-0.57582 0.31933,-0.95996 l 1.08789,-2.94336 c 0.0859,-0.34111 0.29948,-0.5973 0.64063,-0.76855 0.34114,-0.1712 0.68228,-0.19235 1.02344,-0.0635 0.34113,0.0847 0.59732,0.29788 0.76855,0.63965 0.17122,0.34183 0.19237,0.6833 0.0635,1.02441 l -1.02344,3.00782 -0.57617,1.59961 c -0.46876,1.32293 -0.89519,2.51759 -1.2793,3.58398 -0.38412,1.06643 -0.72592,2.00523 -1.02539,2.81641 -0.29818,0.80991 -0.55404,1.53484 -0.76758,2.1748 -0.21354,0.63999 -0.4056,1.195 -0.57617,1.66504 -0.34115,0.89585 -0.62891,1.74904 -0.86328,2.55957 -0.23438,0.81056 -0.45834,1.57846 -0.67188,2.30371 -0.17057,0.72527 -0.30924,1.36524 -0.41601,1.91992 -0.10677,0.5547 -0.16016,1.04558 -0.16016,1.47266 l 0,0.12695 c 0,0.38412 0.0319,0.75749 0.0957,1.12012 0.0638,0.36263 0.18098,0.6722 0.35156,0.92871 0.29947,0.42709 0.76888,0.64063 1.4082,0.64063 l 0.0644,0 c 0.98177,0 1.89909,-0.36263 2.75196,-1.0879 0.85285,-0.72525 1.6634,-1.64257 2.43164,-2.75195 0.85416,-1.23827 1.61164,-2.57193 2.27246,-4.00097 0.66079,-1.42903 1.26854,-2.76204 1.82324,-3.99903 0.17056,-0.34113 0.42675,-0.58657 0.76856,-0.73633 0.34178,-0.14972 0.68325,-0.1393 1.02441,0.0312 z"
             inkscape:connector-curvature="0" />
          <path
             id="path3032"
             style="font-size:64px;font-variant:normal;font-stretch:normal;fill:#a7699b;font-family:Nickainley;-inkscape-font-specification:Nickainley;fill-opacity:1"
             d="m 160.6582,193.24022 c 0.89582,1.53648 1.72785,3.11525 2.4961,4.73633 0.76821,1.62111 1.17315,3.39194 1.21484,5.3125 l 0,0.0625 0,0.0644 c -0.0417,1.92058 -0.41473,3.58464 -1.11914,4.99219 -0.70445,1.40755 -1.61135,2.58073 -2.7207,3.51953 -1.10939,0.9388 -2.35744,1.63216 -3.74414,2.08008 -1.38673,0.44791 -2.76238,0.69336 -4.12696,0.73633 l -0.0644,0 c -0.12761,0 -0.2448,-0.0108 -0.35156,-0.0322 -0.10678,-0.0215 -0.20314,-0.0322 -0.28907,-0.0322 -1.36459,-0.0846 -2.59082,-0.39388 -3.67871,-0.92773 -1.08789,-0.53385 -2.03743,-1.22721 -2.84863,-2.08008 -0.76823,-0.85286 -1.36556,-1.82324 -1.79199,-2.91113 -0.42643,-1.08789 -0.63965,-2.208 -0.63965,-3.36035 l 0,-0.57618 c 0.0846,-1.1953 0.35124,-2.3369 0.79981,-3.4248 0.44856,-1.08788 1.07779,-2.05825 1.88769,-2.91113 0.72526,-0.81118 1.59993,-1.44074 2.62402,-1.88868 1.02409,-0.44789 2.15462,-0.69334 3.39161,-0.73632 0.76822,1e-5 1.53644,0.17091 2.30468,0.51269 0.76822,0.34182 1.45116,0.83238 2.04883,1.47168 0.51171,0.5547 0.9274,1.21616 1.24707,1.98438 0.31965,0.76824 0.50096,1.60027 0.54395,2.49609 -2e-5,0.38413 -0.12795,0.70411 -0.38379,0.95996 -0.25588,0.25587 -0.57586,0.3838 -0.95996,0.38379 -0.38413,10e-6 -0.70412,-0.12792 -0.95996,-0.38379 -0.25588,-0.25585 -0.38381,-0.57583 -0.38379,-0.95996 -0.043,-1.06639 -0.40561,-1.96223 -1.08789,-2.6875 -0.64064,-0.72524 -1.40887,-1.08787 -2.30469,-1.08789 -0.85287,2e-5 -1.62078,0.15985 -2.30371,0.47949 -0.68295,0.31968 -1.28028,0.75685 -1.79199,1.31152 -0.59766,0.59767 -1.05632,1.31252 -1.37598,2.14454 -0.31967,0.83204 -0.52246,1.67449 -0.6084,2.52734 l 0,0.38477 c 0,1.70703 0.57617,3.17904 1.72852,4.41601 0.55468,0.59766 1.22655,1.08822 2.01562,1.47168 0.78906,0.38347 1.67447,0.61817 2.65625,0.7041 0.1276,0.043 0.29817,0.0645 0.51172,0.0645 l 0.0644,0 c 1.0664,-0.043 2.1328,-0.23503 3.19922,-0.57618 1.06639,-0.34114 2.04816,-0.87434 2.94531,-1.59961 0.85285,-0.72525 1.53514,-1.62141 2.04688,-2.68847 0.5117,-1.06705 0.78904,-2.34732 0.83203,-3.84082 l 0,-0.0625 c -0.043,-1.53645 -0.40562,-3.02994 -1.08789,-4.48047 -0.68231,-1.4505 -1.42905,-2.85871 -2.24023,-4.22461 -0.21356,-0.34113 -0.39488,-0.65037 -0.54395,-0.92774 -0.1491,-0.27732 -0.33042,-0.58656 -0.54395,-0.92773 -0.46876,0.46877 -0.89519,0.95901 -1.27929,1.4707 -0.25652,0.2995 -0.56609,0.45998 -0.92871,0.48145 -0.36264,0.0215 -0.69305,-0.096 -0.99121,-0.35254 -0.29949,-0.21352 -0.45965,-0.50161 -0.48047,-0.86426 -0.0208,-0.36261 0.0749,-0.69301 0.28711,-0.99121 0.68358,-0.81117 1.38801,-1.5794 2.11328,-2.30469 l 0.0644,-0.0644 c -0.38413,-0.89581 -0.66147,-1.81312 -0.83203,-2.75195 -0.17058,-0.93878 -0.17058,-1.89841 0,-2.87891 0.0417,-0.55466 0.21223,-1.15231 0.51172,-1.79297 -1e-5,-0.0429 0.0107,-0.0644 0.0322,-0.0644 0.0215,3e-5 0.0322,-0.0208 0.0322,-0.0625 0.2552,-0.55466 0.61783,-1.06702 1.08789,-1.53711 0.3828,-0.38408 0.83072,-0.68226 1.34375,-0.89453 0.51171,-0.25648 1.02342,-0.38473 1.53516,-0.38477 0.93878,0.0847 1.68553,0.4473 2.24023,1.08789 0.46873,0.46879 0.74608,1.21553 0.83203,2.24024 -2e-5,0.29821 -0.0215,0.59671 -0.0644,0.89551 -0.043,0.29885 -0.10679,0.59736 -0.19141,0.8955 -0.086,0.34118 -0.18198,0.66117 -0.28808,0.95996 -0.10614,0.29886 -0.22365,0.59801 -0.35254,0.89747 -0.34116,0.76695 -0.74644,1.4704 -1.21582,2.11035 -0.46942,0.64 -0.95998,1.25881 -1.47168,1.85644 0.21353,0.42711 0.44823,0.84345 0.7041,1.24903 0.25584,0.40562 0.49054,0.84279 0.7041,1.31152 z m -2.56054,-5.37695 c 0.25649,-0.34112 0.50193,-0.70375 0.73632,-1.08789 0.23436,-0.38409 0.45832,-0.78904 0.67188,-1.21485 0.0859,-0.21351 0.17153,-0.43747 0.25684,-0.67187 0.0853,-0.23435 0.14874,-0.45831 0.19042,-0.67188 0.12889,-0.42705 0.17186,-0.81116 0.12891,-1.15234 -2e-5,-0.29945 -0.043,-0.47002 -0.12891,-0.51172 -1e-5,-0.0429 -0.0638,-0.0644 -0.1914,-0.0644 -0.0847,-0.0429 -0.23374,-0.0215 -0.44727,0.0644 -0.25652,0.1706 -0.44858,0.31969 -0.57617,0.44726 -0.21356,0.21358 -0.38413,0.46944 -0.51172,0.76758 l -0.0644,0.0645 c -0.17059,0.38414 -0.27736,0.74677 -0.32031,1.08789 -0.12762,0.9818 -0.0423,1.96292 0.25586,2.94336 z"
             inkscape:connector-curvature="0" />
          <path
             id="path3034"
             style="font-size:64px;font-variant:normal;font-stretch:normal;fill:#a7699b;font-family:Nickainley;-inkscape-font-specification:Nickainley;fill-opacity:1"
             d="m 195.07422,199.5117 c 0.34242,0.12892 0.58819,0.36395 0.7373,0.70508 0.14906,0.34116 0.13832,0.68231 -0.0322,1.02344 -0.086,0.21355 -0.17158,0.42677 -0.25684,0.63965 -0.0853,0.2129 -0.17027,0.42612 -0.25488,0.63965 -0.086,0.17058 -0.18232,0.34148 -0.28906,0.51269 -0.1068,0.17124 -0.20251,0.36297 -0.28711,0.5752 -0.42711,0.85417 -0.89651,1.67579 -1.40821,2.46484 -0.51174,0.78907 -1.1094,1.52475 -1.79297,2.20703 -0.72528,0.72527 -1.54657,1.30144 -2.46386,1.72852 -0.91734,0.42708 -1.973,0.64063 -3.167,0.64062 -0.64064,1e-5 -1.23829,-0.0638 -1.79296,-0.1914 -0.46877,-0.17187 -0.93784,-0.375 -1.40723,-0.60938 -0.46942,-0.23437 -0.87469,-0.52213 -1.21582,-0.86328 -1.32293,1.7487 -2.79493,3.19922 -4.41602,4.35156 -1.6211,1.15235 -3.34896,1.68555 -5.18359,1.59961 l -0.0644,0 -0.12891,0 -0.0625,0 c -1.19531,-0.0846 -2.13444,-0.36165 -2.81738,-0.83105 -0.68295,-0.4694 -1.19499,-1.08822 -1.53614,-1.85645 -0.72525,2.00521 -1.41861,3.93587 -2.08007,5.79199 -0.66146,1.85612 -1.26953,3.55208 -1.82422,5.08789 -0.55468,1.5358 -1.02376,2.85839 -1.40723,3.96778 -0.38346,1.10936 -0.66047,1.89907 -0.83105,2.36914 -0.1289,0.34113 -0.36393,0.59699 -0.70508,0.76758 -0.34114,0.17055 -0.68228,0.19204 -1.02344,0.0645 -0.34114,-0.12892 -0.59699,-0.36395 -0.76758,-0.70508 -0.17056,-0.34116 -0.19204,-0.6823 -0.0644,-1.02344 0.17058,-0.51173 0.49057,-1.40756 0.95996,-2.6875 0.46941,-1.27995 1.0241,-2.82683 1.66406,-4.64062 0.63998,-1.81381 1.3545,-3.8086 2.14356,-5.98438 0.78906,-2.17578 1.58919,-4.41536 2.40039,-6.71875 0.89583,-2.47525 1.79167,-4.93944 2.6875,-7.39257 0.89583,-2.45311 1.71712,-4.70376 2.46387,-6.75196 0.74674,-2.04815 1.37629,-3.78708 1.88867,-5.21679 0.51236,-1.42966 0.87467,-2.40037 1.08691,-2.91211 0.0859,-0.17055 0.15006,-0.34112 0.19238,-0.51172 0.0423,-0.17055 0.10644,-0.34112 0.19239,-0.51172 0.1276,-0.34112 0.3623,-0.59698 0.7041,-0.76758 0.34179,-0.17054 0.68326,-0.19203 1.02441,-0.0645 0.34114,0.12763 0.597,0.36233 0.76758,0.7041 0.17057,0.34183 0.19205,0.6833 0.0644,1.02441 l -0.51171,1.34375 c 0.93879,-0.98174 1.93065,-1.76071 2.97558,-2.33691 1.04491,-0.57614 2.18586,-0.84274 3.42285,-0.79981 1.83462,0.043 3.17902,0.76826 4.03321,2.17579 0.42576,0.64065 0.72426,1.39813 0.8955,2.27246 0.17121,0.87437 0.25682,1.82391 0.25684,2.84863 l -0.0644,0.32031 0,0.0625 c -0.043,0.89586 -0.18166,1.9092 -0.41602,3.04004 -0.23439,1.13088 -0.54364,2.31512 -0.92773,3.55274 -0.38414,1.23764 -0.84279,2.49643 -1.37598,3.77636 -0.53322,1.27996 -1.14162,2.51694 -1.8252,3.71094 -0.0417,0.12892 -0.14845,0.32097 -0.32031,0.57617 0.51301,0.5547 1.13215,0.93881 1.85742,1.15235 0.21353,0.043 0.40559,0.0752 0.57618,0.0967 0.17055,0.0215 0.36261,0.0322 0.57617,0.0322 0.76691,1e-5 1.4492,-0.1494 2.04687,-0.44824 0.59764,-0.29882 1.15233,-0.68326 1.66407,-1.15332 0.55466,-0.55468 1.04522,-1.17317 1.47168,-1.85547 0.4264,-0.68228 0.83168,-1.38606 1.21582,-2.11133 0.0859,-0.17056 0.17152,-0.33071 0.25683,-0.48047 0.0853,-0.14972 0.17088,-0.33136 0.25684,-0.54492 0.0846,-0.17056 0.15883,-0.35155 0.22265,-0.54297 0.0638,-0.19139 0.13865,-0.39386 0.22461,-0.60742 0.17055,-0.34113 0.42641,-0.58657 0.76758,-0.73633 0.34112,-0.14972 0.68227,-0.1393 1.02344,0.0312 z m -13.75977,-0.0644 c 0.34114,0.0859 0.60774,0.28908 0.79981,0.60938 0.19204,0.32032 0.24575,0.67188 0.16113,1.05468 -0.0859,0.2995 -0.15008,0.58791 -0.19238,0.86524 -0.0423,0.27735 -0.085,0.54363 -0.12793,0.79883 0.93879,-1.96223 1.67479,-3.92479 2.20801,-5.8877 0.53318,-1.96287 0.84275,-3.62661 0.92871,-4.99121 l 0,-0.0644 0,-0.25586 0,-0.0645 c 0.0417,-0.72523 0.009,-1.39711 -0.0967,-2.01562 -0.10614,-0.61847 -0.28745,-1.11977 -0.54395,-1.50391 -0.38413,-0.59763 -1.00262,-0.91794 -1.85547,-0.96094 -1.32293,-0.0416 -2.54981,0.48148 -3.68066,1.56934 -1.13087,1.08792 -2.18686,2.45315 -3.16797,4.0957 -0.98113,1.6426 -1.87696,3.41311 -2.6875,5.31153 -0.81055,1.89845 -1.53614,3.65886 -2.17676,5.28125 l -0.44726,1.08789 c -0.21355,0.72527 -0.4056,1.48243 -0.57618,2.27148 -0.17057,0.78907 -0.29882,1.54623 -0.38476,2.27149 -0.043,0.89583 0.085,1.66374 0.38379,2.30371 0.29882,0.63997 0.91764,0.98145 1.85644,1.02441 l 0.0645,0 0.12695,0 c 1.49348,0.043 2.90169,-0.46907 4.22461,-1.53613 1.32291,-1.06705 2.53905,-2.43261 3.64844,-4.09668 -0.38413,-0.89583 -0.57619,-1.94075 -0.57618,-3.13477 -1e-5,-1.02472 0.14908,-2.04881 0.44727,-3.07226 0.0859,-0.3841 0.29947,-0.66145 0.64063,-0.83203 0.34113,-0.17056 0.68227,-0.21353 1.02343,-0.12891 z"
             inkscape:connector-curvature="0" />
        </g>
      </g>
      <g
         style="font-size:41.06666946000000000px;font-style:normal;font-weight:normal;line-height:125%;letter-spacing:0px;word-spacing:0px;fill:#5c204f;fill-opacity:1;stroke:none;font-family:Sans"
         id="text3002"
         transform="translate(0.118143,0)">
        <path
           inkscape:connector-curvature="0"
           d="m 1787.448,308.79345 c 0.3515,0.17514 0.5928,0.43815 0.7239,0.78905 0.131,0.35092 0.131,0.7015 0,1.05173 -1.27,2.80329 -2.6499,5.0919 -4.1398,6.86583 -1.4899,1.77395 -3.067,3.18695 -4.7313,4.23901 -1.6643,1.05073 -3.3507,1.77328 -5.0591,2.16763 -1.7085,0.39436 -3.3948,0.54743 -5.0591,0.4592 l -0.1324,0 -0.064,0 c -1.183,-0.0869 -2.2892,-0.3058 -3.3186,-0.65671 -1.0293,-0.35091 -1.9163,-0.89867 -2.6609,-1.64327 -0.7887,-0.7446 -1.402,-1.66432 -1.8398,-2.75916 -0.4378,-1.09484 -0.6353,-2.38686 -0.5925,-3.87607 l 0,-0.13235 0,-0.0662 c 0.088,-1.53197 0.3623,-3.14148 0.8221,-4.82854 0.4599,-1.68703 1.0621,-3.36272 1.8067,-5.02706 0.7446,-1.70841 1.6099,-3.32895 2.5958,-4.86162 0.9859,-1.53263 2.0042,-2.86843 3.0549,-4.00741 1.0079,-1.00793 2.0814,-1.77458 3.2204,-2.29998 1.1389,-0.61356 2.2779,-0.92036 3.4168,-0.92039 l 0.064,0 0.1985,0 0.064,0 c 0.7459,0.0442 1.4474,0.20858 2.1045,0.49328 0.657,0.28477 1.2261,0.71188 1.7074,1.28133 0.9638,1.09487 1.4457,2.58407 1.4457,4.46761 l 0,0.39502 c 0,0.83152 -0.1751,1.70713 -0.5253,2.62683 -0.1324,0.43849 -0.3078,0.8549 -0.5264,1.24924 -0.2186,0.39438 -0.4595,0.78873 -0.7229,1.18307 -0.2192,0.30615 -0.515,0.49197 -0.8873,0.55745 -0.3723,0.0655 -0.7336,-0.0107 -1.0838,-0.22859 -0.3061,-0.21922 -0.4923,-0.51499 -0.5584,-0.88731 -0.066,-0.37228 0.01,-0.73422 0.2296,-1.08582 0.3943,-0.43711 0.7011,-1.00592 0.9204,-1.70643 0.2633,-0.56946 0.395,-1.18305 0.395,-1.84078 l 0,-0.26268 c 0,-1.22717 -0.2634,-2.10344 -0.7901,-2.62883 -0.4371,-0.48122 -1.0501,-0.76596 -1.8387,-0.85422 l -0.1966,0 c -0.3516,3e-5 -0.7135,0.0548 -1.0858,0.16443 -0.3723,0.10964 -0.755,0.25201 -1.148,0.42711 -0.3943,0.21926 -0.7997,0.48228 -1.2161,0.78905 -0.4164,0.30682 -0.7998,0.6574 -1.15,1.05173 -0.9639,1.00664 -1.8949,2.21076 -2.7933,3.61238 -0.8983,1.40166 -1.6977,2.86914 -2.3982,4.40243 -0.6564,1.53334 -1.1928,3.05562 -1.6092,4.56687 -0.4164,1.51127 -0.668,2.94599 -0.7549,4.30418 l 0,0.13234 c -0.044,2.05869 0.4812,3.56994 1.5761,4.53378 0.4812,0.48125 1.0834,0.85322 1.8067,1.11589 0.7232,0.26269 1.5226,0.41609 2.3982,0.4602 l 0.1323,0 c 1.401,0.0441 2.8354,-0.0983 4.3032,-0.42711 1.4678,-0.32885 2.9022,-0.93108 4.3032,-1.80669 1.4023,-0.8756 2.7715,-2.11315 4.1077,-3.71265 1.3361,-1.59947 2.5516,-3.64712 3.6464,-6.14295 0.1751,-0.35023 0.4378,-0.59119 0.7881,-0.72288 0.3502,-0.13166 0.7004,-0.13199 1.0507,-10e-4 z"
           style="fill:#5c204f"
           id="path3037" />
        <path
           inkscape:connector-curvature="0"
           d="m 1811.6408,308.79345 c 0.3503,0.17514 0.6022,0.43815 0.756,0.78905 0.1537,0.35092 0.143,0.7015 -0.032,1.05173 l -0.066,0.19651 c -0.6136,1.40232 -1.3037,2.89186 -2.0703,4.46861 -0.7667,1.57677 -1.632,3.04424 -2.5958,4.40243 -0.9638,1.3582 -2.048,2.48613 -3.2524,3.38379 -1.2045,0.89767 -2.5513,1.3465 -4.0405,1.3465 l -0.066,0 c -0.8756,0 -1.6202,-0.17512 -2.2338,-0.52537 -0.6136,-0.35024 -1.1169,-0.8101 -1.5099,-1.37958 -0.3516,-0.52536 -0.5929,-1.09484 -0.7239,-1.70844 -0.131,-0.61359 -0.1965,-1.24924 -0.1965,-1.90695 l 0,-0.19651 c 0,-1.00661 0.2406,-2.36413 0.7219,-4.07258 0.2192,-0.7887 0.4495,-1.6212 0.6908,-2.49749 0.2412,-0.87626 0.537,-1.77426 0.8873,-2.69399 0.3061,-0.87559 0.5467,-1.59814 0.7218,-2.16763 0.1752,-0.56946 0.3282,-1.07344 0.4592,-1.51193 0.2193,-0.61357 0.4057,-1.16133 0.5595,-1.64327 0.1537,-0.4819 0.3616,-1.0731 0.6236,-1.77361 l -1.0507,-0.32885 c -0.9639,-0.35022 -1.9715,-0.70046 -3.0229,-1.05073 -1.0514,-0.35022 -2.0804,-0.76663 -3.087,-1.24924 -0.088,0.30749 -0.1982,0.60359 -0.3298,0.8883 -0.1317,0.28477 -0.241,0.53609 -0.3279,0.75396 l 0,0.0662 -5.3218,11.49987 c -0.1751,0.35026 -0.4382,0.59088 -0.7891,0.72188 -0.3509,0.13102 -0.7015,0.10896 -1.0517,-0.0662 -0.3502,-0.17511 -0.5912,-0.4378 -0.7229,-0.78805 -0.1317,-0.35023 -0.1093,-0.70047 0.067,-1.05073 l 5.2556,-11.4337 0.7881,-1.97112 c -1.0949,-0.74457 -1.9598,-1.60982 -2.5947,-2.59574 -0.635,-0.98586 -0.887,-2.1793 -0.756,-3.5803 0.131,-0.9638 0.5474,-1.79596 1.2492,-2.49648 0,-0.0441 0.021,-0.0661 0.064,-0.0662 0.7887,-0.70045 1.687,-1.0507 2.695,-1.05073 0.3061,3e-5 0.6784,0.0435 1.1169,0.13034 l 0.066,0.0662 c 0.4812,0.13104 0.897,0.34994 1.2472,0.6567 0.3502,0.30683 0.635,0.65741 0.8542,1.05173 0.3503,0.65641 0.5254,1.46651 0.5254,2.43032 0,0.56951 -0.109,1.22655 -0.3269,1.97112 -0.088,0.35161 -0.1981,0.71355 -0.3298,1.08582 -0.1317,0.37233 -0.263,0.75565 -0.394,1.14998 0.9197,0.48128 1.9052,0.89703 2.9566,1.24724 1.0514,0.35027 2.059,0.70051 3.0229,1.05073 1.0079,0.30749 1.8401,0.57084 2.4965,0.79005 0.3502,0.13104 0.6022,0.38269 0.7559,0.75497 0.1538,0.37232 0.1645,0.73359 0.032,1.08381 l 0,0.0662 c -0.393,1.00798 -0.6991,1.82944 -0.9184,2.4644 -0.2192,0.63501 -0.4384,1.3248 -0.6577,2.06938 -0.1751,0.48127 -0.3613,1.01766 -0.5584,1.60918 -0.1972,0.59155 -0.4275,1.28168 -0.6908,2.07038 -0.3062,0.91973 -0.5906,1.79567 -0.8532,2.62782 -0.2627,0.83217 -0.4816,1.62055 -0.6567,2.36514 -0.2193,0.74461 -0.3727,1.40165 -0.4602,1.97112 -0.088,0.56949 -0.1534,1.07346 -0.1975,1.51193 l 0,0.13034 c -10e-5,0.39436 0.033,0.77769 0.098,1.14999 0.065,0.3723 0.2079,0.69013 0.4271,0.95347 0.131,0.21924 0.3061,0.38367 0.5254,0.49328 0.2192,0.10963 0.526,0.16443 0.9204,0.16443 1.052,0 2.0269,-0.39435 2.9246,-1.18307 0.8976,-0.78871 1.7408,-1.77427 2.5295,-2.95668 0.7887,-1.1824 1.5116,-2.47475 2.1687,-3.87707 0.657,-1.4023 1.2482,-2.71638 1.7736,-3.94224 l 0.066,-0.19651 c 0.1751,-0.35023 0.4377,-0.60222 0.788,-0.75596 0.3502,-0.15372 0.7005,-0.14303 1.0507,0.0321 z m -19.4485,-14.7844 c 0.131,-0.39299 0.1965,-0.78668 0.1965,-1.18107 0,-0.43844 -0.065,-0.78935 -0.1965,-1.05273 -0.131,-0.21921 -0.2847,-0.35021 -0.4612,-0.39303 l -0.064,0 c -0.088,4e-5 -0.1434,-0.011 -0.1655,-0.0331 -0.022,-0.022 -0.077,-0.0331 -0.1634,-0.0331 -0.3075,4e-5 -0.5702,0.10965 -0.788,0.32886 l -0.066,0 c -0.1751,0.17515 -0.3068,0.45989 -0.395,0.85422 -0.087,0.61362 0.023,1.17207 0.3288,1.67535 0.3061,0.50333 0.7225,0.97422 1.2493,1.41267 0.087,-0.26332 0.1741,-0.52634 0.2616,-0.78905 0.088,-0.26266 0.1755,-0.52567 0.2637,-0.78905 z"
           style="fill:#5c204f;fill-opacity:1"
           id="path3039" />
      </g>
    </g>
  </g>
</svg>
